<?xml version="1.0" encoding="UTF-8" standalone="no"?>
<!DOCTYPE svg PUBLIC "-//W3C//DTD SVG 1.1//EN" "http://www.w3.org/Graphics/SVG/1.1/DTD/svg11.dtd">
<svg width="100%" height="100%" viewBox="0 0 400 400" version="1.1" xmlns="http://www.w3.org/2000/svg" xmlns:xlink="http://www.w3.org/1999/xlink" xml:space="preserve" xmlns:serif="http://www.serif.com/" style="fill-rule:evenodd;clip-rule:evenodd;stroke-linejoin:round;stroke-miterlimit:2;">
    <g transform="matrix(0.741664,0,0,0.892675,26.7214,25.4739)">
        <path d="M220.088,22.183C220.088,22.183 54.714,22.183 66.225,22.183C28.762,23.086 17.212,29.18 16.725,67.785C16.184,110.578 15.847,321.979 15.847,322.071C15.847,352.449 34.789,368.835 66.225,368.835C56.604,368.835 220.088,368.835 220.088,368.835L220.088,22.183Z" style="fill:rgb(225,225,225);"/>
    </g>
    <g transform="matrix(0.776691,0,0,0.892675,190.705,25.4739)">
        <path d="M174.375,22.623C174.286,22.623 15.686,22.183 15.686,22.183L15.686,368.835C15.686,368.835 220.088,368.835 174.375,368.835C212.143,368.835 220.121,352.161 220.121,322.071C220.121,321.907 220.302,68.334 220.302,68.193C220.302,41.548 208.773,22.623 174.375,22.623Z" style="fill:rgb(225,225,225);"/>
    </g>
    <g transform="matrix(0.620185,0,0,0.620185,46.0435,13.987)">
        <circle cx="109.823" cy="138.219" r="61.781" style="fill:rgb(45,255,21);"/>
        <g transform="matrix(1.02302,0,0,0.901732,-27.9223,-120.122)">
            <path d="M109.065,261.638L131.761,303.781L157.759,238.894L173.159,257.672L131.761,334.094L96.132,280.276L109.065,261.638Z" style="fill:white;"/>
        </g>
    </g>
    <g transform="matrix(0.620185,0,0,0.620185,45.81,114.279)">
        <circle cx="109.823" cy="138.219" r="61.781" style="fill:rgb(45,255,21);"/>
        <g transform="matrix(1.02302,0,0,0.901732,-27.9223,-120.122)">
            <path d="M109.065,261.638L131.761,303.781L157.759,238.894L173.159,257.672L131.761,334.094L96.132,280.276L109.065,261.638Z" style="fill:white;"/>
        </g>
    </g>
    <g transform="matrix(0.620185,0,0,0.620185,45.81,213.107)">
        <circle cx="109.823" cy="138.219" r="61.781" style="fill:rgb(45,255,21);"/>
        <g transform="matrix(1.02302,0,0,0.901732,-27.9223,-120.122)">
            <path d="M109.065,261.638L131.761,303.781L157.759,238.894L173.159,257.672L131.761,334.094L96.132,280.276L109.065,261.638Z" style="fill:white;"/>
        </g>
    </g>
    <g transform="matrix(0.892675,0,0,0.892675,184.23,158.609)">
        <circle cx="109.823" cy="138.219" r="61.781" style="fill:rgb(45,255,21);"/>
        <g transform="matrix(1.02302,0,0,0.901732,-27.9223,-120.122)">
            <path d="M109.065,261.638L131.761,303.781L157.759,238.894L173.159,257.672L131.761,334.094L96.132,280.276L109.065,261.638Z" style="fill:white;"/>
        </g>
    </g>
    <g transform="matrix(0.892675,0,0,0.892675,184.23,9.13185)">
        <circle cx="109.823" cy="138.219" r="61.781" style="fill:rgb(255,37,0);"/>
    </g>
    <g transform="matrix(0.913225,0,0,0.804954,159.305,-98.0982)">
        <path d="M109.065,261.638L131.761,303.781L157.759,238.894L173.159,257.672L131.761,334.094L96.132,280.276L109.065,261.638Z" style="fill:white;"/>
    </g>
</svg>
