<?xml version="1.0" encoding="UTF-8" standalone="no"?>
<!DOCTYPE svg PUBLIC "-//W3C//DTD SVG 1.1//EN" "http://www.w3.org/Graphics/SVG/1.1/DTD/svg11.dtd">
<svg width="100%" height="100%" viewBox="0 0 400 400" version="1.1" xmlns="http://www.w3.org/2000/svg" xmlns:xlink="http://www.w3.org/1999/xlink" xml:space="preserve" xmlns:serif="http://www.serif.com/" style="fill-rule:evenodd;clip-rule:evenodd;stroke-linejoin:round;stroke-miterlimit:2;">
    <g transform="matrix(0.830833,0,0,1,2.6535,0)">
        <rect x="15.686" y="22.183" width="204.402" height="346.653" style="fill:rgb(225,225,225);"/>
    </g>
    <g transform="matrix(0.870072,0,0,1,186.352,0)">
        <rect x="15.686" y="22.183" width="204.402" height="346.653" style="fill:rgb(225,225,225);"/>
    </g>
    <g transform="matrix(0.694749,0,0,0.694749,24.2986,-12.868)">
        <circle cx="109.823" cy="138.219" r="61.781" style="fill:rgb(45,255,21);"/>
        <g transform="matrix(1.02302,0,0,0.901732,-27.9223,-120.122)">
            <path d="M109.065,261.638L131.761,303.781L157.759,238.894L173.159,257.672L131.761,334.094L96.132,280.276L109.065,261.638Z" style="fill:white;"/>
        </g>
    </g>
    <g transform="matrix(0.694749,0,0,0.694749,24.0371,99.482)">
        <circle cx="109.823" cy="138.219" r="61.781" style="fill:rgb(45,255,21);"/>
        <g transform="matrix(1.02302,0,0,0.901732,-27.9223,-120.122)">
            <path d="M109.065,261.638L131.761,303.781L157.759,238.894L173.159,257.672L131.761,334.094L96.132,280.276L109.065,261.638Z" style="fill:white;"/>
        </g>
    </g>
    <g transform="matrix(0.694749,0,0,0.694749,24.0371,210.192)">
        <circle cx="109.823" cy="138.219" r="61.781" style="fill:rgb(45,255,21);"/>
        <g transform="matrix(1.02302,0,0,0.901732,-27.9223,-120.122)">
            <path d="M109.065,261.638L131.761,303.781L157.759,238.894L173.159,257.672L131.761,334.094L96.132,280.276L109.065,261.638Z" style="fill:white;"/>
        </g>
    </g>
    <g transform="matrix(1,0,0,1,179.1,149.141)">
        <circle cx="109.823" cy="138.219" r="61.781" style="fill:rgb(45,255,21);"/>
        <g transform="matrix(1.02302,0,0,0.901732,-27.9223,-120.122)">
            <path d="M109.065,261.638L131.761,303.781L157.759,238.894L173.159,257.672L131.761,334.094L96.132,280.276L109.065,261.638Z" style="fill:white;"/>
        </g>
    </g>
    <g transform="matrix(1,0,0,1,179.1,-18.3068)">
        <circle cx="109.823" cy="138.219" r="61.781" style="fill:rgb(255,37,0);"/>
    </g>
    <g transform="matrix(1.02302,0,0,0.901732,151.177,-138.429)">
        <path d="M109.065,261.638L131.761,303.781L157.759,238.894L173.159,257.672L131.761,334.094L96.132,280.276L109.065,261.638Z" style="fill:white;"/>
    </g>
</svg>
